<svg width="1728" height="1117" viewBox="0 0 1728 1117" fill="none" xmlns="http://www.w3.org/2000/svg">
<g clip-path="url(#clip0_1_2)">
<rect width="1728" height="1117" fill="#FFF083"/>
<path d="M450.5 749C275.008 723.174 4.5 835 4.5 835V1125H1430.5C1430.5 1125 1266.68 963.769 1131.5 941.5C1028.74 924.572 970.676 985.353 867 975.5C682.681 957.982 633.676 775.957 450.5 749Z" fill="#FCB454" stroke="#BF7747"/>
<path d="M1694.79 -30.7806C1804.58 49.718 1950.98 332.375 1869.5 443.5C1788.02 554.625 1764.08 839.662 1654.29 759.164C1544.5 678.665 1540.74 448.111 1622.21 336.986C1703.69 225.861 1585 -111.279 1694.79 -30.7806Z" fill="#FCB454"/>
</g>
<defs>
<clipPath id="clip0_1_2">
<rect width="1728" height="1117" fill="white"/>
</clipPath>
</defs>
</svg>
