<svg width="1742" height="942" viewBox="0 0 1742 942" fill="none" xmlns="http://www.w3.org/2000/svg">
<g clip-path="url(#clip0_1_2)">
<rect width="1742" height="942" fill="#F2EFE7"/>
<path d="M450.5 749C275.008 723.174 4.5 835 4.5 835V1125H1430.5C1430.5 1125 1266.68 963.769 1131.5 941.5C1028.74 924.572 970.676 985.353 867 975.5C682.681 957.982 633.676 775.957 450.5 749Z" fill="#48A6A7"/>
<path d="M1717.79 -21.7805C1827.58 58.7181 1973.98 341.375 1892.5 452.5C1811.02 563.625 1787.08 848.662 1677.29 768.164C1567.5 687.665 1563.74 457.111 1645.21 345.986C1726.69 234.861 1608 -102.279 1717.79 -21.7805Z" fill="#48A6A7"/>
</g>
<defs>
<clipPath id="clip0_1_2">
<rect width="1742" height="942" fill="white"/>
</clipPath>
</defs>
</svg>
